<svg xmlns="http://www.w3.org/2000/svg" viewBox="0 0 940 400" width="940" height="400">
  <defs>
    <linearGradient id="bg05" x1="0" y1="0" x2="0" y2="1"><stop offset="0" stop-color="#0F2B4A"/><stop offset="1" stop-color="#0A1E35"/></linearGradient>
    <linearGradient id="gold05" x1="0" y1="0" x2="1" y2="0"><stop offset="0" stop-color="#C9A84C"/><stop offset="1" stop-color="#E8CC6E"/></linearGradient>
    <radialGradient id="glow05"><stop offset="0" stop-color="#C9A84C" stop-opacity="0.15"/><stop offset="1" stop-color="#C9A84C" stop-opacity="0"/></radialGradient>
  </defs>
  <rect width="940" height="400" fill="url(#bg05)"/>
  <rect x="0" y="0" width="940" height="3" fill="url(#gold05)"/>
  
  <!-- Minimal network -->
  <g opacity="0.2">
    <line x1="700" y1="80" x2="820" y2="160" stroke="#C9A84C" stroke-width="1"/>
    <line x1="820" y1="160" x2="790" y2="310" stroke="#C9A84C" stroke-width="1"/>
    <line x1="790" y1="310" x2="670" y2="350" stroke="#C9A84C" stroke-width="1"/>
    <line x1="670" y1="350" x2="600" y2="220" stroke="#C9A84C" stroke-width="1"/>
    <line x1="600" y1="220" x2="700" y2="80" stroke="#C9A84C" stroke-width="1"/>
    <line x1="700" y1="80" x2="600" y2="220" stroke="#C9A84C" stroke-width="0.6"/>
    <line x1="820" y1="160" x2="670" y2="350" stroke="#C9A84C" stroke-width="0.6"/>
    
    <circle cx="700" cy="80" r="4" fill="#C9A84C"/>
    <circle cx="820" cy="160" r="3.5" fill="#C9A84C"/>
    <circle cx="790" cy="310" r="4" fill="#C9A84C"/>
    <circle cx="670" cy="350" r="3" fill="#C9A84C"/>
    <circle cx="600" cy="220" r="3.5" fill="#C9A84C"/>
    <circle cx="710" cy="200" r="50" fill="url(#glow05)"/>
    <circle cx="710" cy="200" r="5" fill="#C9A84C"/>
  </g>
  
  <rect x="30" y="25" width="100" height="26" rx="13" fill="#C9A84C"/>
  <text x="80" y="42" text-anchor="middle" font-family="'PingFang SC','Microsoft YaHei',sans-serif" font-size="12" font-weight="bold" fill="#0F2B4A">深度连载</text>
  
  <rect x="50" y="258" width="48" height="3" rx="1.5" fill="#C9A84C"/>
  
  <text x="50" y="175" font-family="'PingFang SC','Microsoft YaHei',sans-serif" font-size="40" font-weight="bold" fill="#ffffff">AI智能体技术</text>
  <text x="50" y="240" font-family="'PingFang SC','Microsoft YaHei',sans-serif" font-size="34" font-weight="bold" fill="#ffffff">在全过程咨询中的应用前景</text>
  
  <text x="910" y="370" text-anchor="end" font-family="'PingFang SC','Microsoft YaHei',sans-serif" font-size="13" fill="#C9A84C" opacity="0.7">清源智界 · 獴探</text>
</svg>
